<?xml version="1.0" encoding="UTF-8" standalone="no"?>
<!DOCTYPE svg PUBLIC "-//W3C//DTD SVG 1.1//EN"
 "http://www.w3.org/Graphics/SVG/1.1/DTD/svg11.dtd">
<!-- Generated by graphviz version 6.0.2 (20221011.1828)
 -->
<!-- Title: unnamed Pages: 1 -->
<svg width="100%" height="100%" xmlns="http://www.w3.org/2000/svg" xmlns:xlink="http://www.w3.org/1999/xlink">
<script type="text/ecmascript"><![CDATA[
/**
 *  SVGPan library 1.2.2
 * ======================
 *
 * Given an unique existing element with id "viewport" (or when missing, the
 * first g-element), including the library into any SVG adds the following
 * capabilities:
 *
 *  - Mouse panning
 *  - Mouse zooming (using the wheel)
 *  - Object dragging
 *
 * You can configure the behaviour of the pan/zoom/drag with the variables
 * listed in the CONFIGURATION section of this file.
 *
 * Known issues:
 *
 *  - Zooming (while panning) on Safari has still some issues
 *
 * Releases:
 *
 * 1.2.2, Tue Aug 30 17:21:56 CEST 2011, Andrea Leofreddi
 *	- Fixed viewBox on root tag (#7)
 *	- Improved zoom speed (#2)
 *
 * 1.2.1, Mon Jul  4 00:33:18 CEST 2011, Andrea Leofreddi
 *	- Fixed a regression with mouse wheel (now working on Firefox 5)
 *	- Working with viewBox attribute (#4)
 *	- Added "use strict;" and fixed resulting warnings (#5)
 *	- Added configuration variables, dragging is disabled by default (#3)
 *
 * 1.2, Sat Mar 20 08:42:50 GMT 2010, Zeng Xiaohui
 *	Fixed a bug with browser mouse handler interaction
 *
 * 1.1, Wed Feb  3 17:39:33 GMT 2010, Zeng Xiaohui
 *	Updated the zoom code to support the mouse wheel on Safari/Chrome
 *
 * 1.0, Andrea Leofreddi
 *	First release
 *
 * This code is licensed under the following BSD license:
 *
 * Copyright 2009-2017 Andrea Leofreddi <a.leofreddi@vleo.net>. All rights reserved.
 *
 * Redistribution and use in source and binary forms, with or without modification, are
 * permitted provided that the following conditions are met:
 *
 *    1. Redistributions of source code must retain the above copyright
 *       notice, this list of conditions and the following disclaimer.
 *    2. Redistributions in binary form must reproduce the above copyright
 *       notice, this list of conditions and the following disclaimer in the
 *       documentation and/or other materials provided with the distribution.
 *    3. Neither the name of the copyright holder nor the names of its
 *       contributors may be used to endorse or promote products derived from
 *       this software without specific prior written permission.
 *
 * THIS SOFTWARE IS PROVIDED BY COPYRIGHT HOLDERS AND CONTRIBUTORS ''AS IS'' AND ANY EXPRESS
 * OR IMPLIED WARRANTIES, INCLUDING, BUT NOT LIMITED TO, THE IMPLIED WARRANTIES OF MERCHANTABILITY
 * AND FITNESS FOR A PARTICULAR PURPOSE ARE DISCLAIMED. IN NO EVENT SHALL COPYRIGHT HOLDERS OR
 * CONTRIBUTORS BE LIABLE FOR ANY DIRECT, INDIRECT, INCIDENTAL, SPECIAL, EXEMPLARY, OR
 * CONSEQUENTIAL DAMAGES (INCLUDING, BUT NOT LIMITED TO, PROCUREMENT OF SUBSTITUTE GOODS OR
 * SERVICES; LOSS OF USE, DATA, OR PROFITS; OR BUSINESS INTERRUPTION) HOWEVER CAUSED AND ON
 * ANY THEORY OF LIABILITY, WHETHER IN CONTRACT, STRICT LIABILITY, OR TORT (INCLUDING
 * NEGLIGENCE OR OTHERWISE) ARISING IN ANY WAY OUT OF THE USE OF THIS SOFTWARE, EVEN IF
 * ADVISED OF THE POSSIBILITY OF SUCH DAMAGE.
 *
 * The views and conclusions contained in the software and documentation are those of the
 * authors and should not be interpreted as representing official policies, either expressed
 * or implied, of Andrea Leofreddi.
 */

"use strict";

/// CONFIGURATION
/// ====>

var enablePan = 1; // 1 or 0: enable or disable panning (default enabled)
var enableZoom = 1; // 1 or 0: enable or disable zooming (default enabled)
var enableDrag = 0; // 1 or 0: enable or disable dragging (default disabled)
var zoomScale = 0.2; // Zoom sensitivity

/// <====
/// END OF CONFIGURATION

var root = document.documentElement;

var state = 'none', svgRoot = null, stateTarget, stateOrigin, stateTf;

setupHandlers(root);

/**
 * Register handlers
 */
function setupHandlers(root){
	setAttributes(root, {
		"onmouseup" : "handleMouseUp(evt)",
		"onmousedown" : "handleMouseDown(evt)",
		"onmousemove" : "handleMouseMove(evt)",
		//"onmouseout" : "handleMouseUp(evt)", // Decomment this to stop the pan functionality when dragging out of the SVG element
	});

	if(navigator.userAgent.toLowerCase().indexOf('webkit') >= 0)
		window.addEventListener('mousewheel', handleMouseWheel, false); // Chrome/Safari
	else
		window.addEventListener('DOMMouseScroll', handleMouseWheel, false); // Others
}

/**
 * Retrieves the root element for SVG manipulation. The element is then cached into the svgRoot global variable.
 */
function getRoot(root) {
	if(svgRoot == null) {
		var r = root.getElementById("viewport") ? root.getElementById("viewport") : root.documentElement, t = r;

		while(t != root) {
			if(t.getAttribute("viewBox")) {
				setCTM(r, t.getCTM());

				t.removeAttribute("viewBox");
			}

			t = t.parentNode;
		}

		svgRoot = r;
	}

	return svgRoot;
}

/**
 * Instance an SVGPoint object with given event coordinates.
 */
function getEventPoint(evt) {
	var p = root.createSVGPoint();

	p.x = evt.clientX;
	p.y = evt.clientY;

	return p;
}

/**
 * Sets the current transform matrix of an element.
 */
function setCTM(element, matrix) {
	var s = "matrix(" + matrix.a + "," + matrix.b + "," + matrix.c + "," + matrix.d + "," + matrix.e + "," + matrix.f + ")";

	element.setAttribute("transform", s);
}

/**
 * Dumps a matrix to a string (useful for debug).
 */
function dumpMatrix(matrix) {
	var s = "[ " + matrix.a + ", " + matrix.c + ", " + matrix.e + "\n  " + matrix.b + ", " + matrix.d + ", " + matrix.f + "\n  0, 0, 1 ]";

	return s;
}

/**
 * Sets attributes of an element.
 */
function setAttributes(element, attributes){
	for (var i in attributes)
		element.setAttributeNS(null, i, attributes[i]);
}

/**
 * Handle mouse wheel event.
 */
function handleMouseWheel(evt) {
	if(!enableZoom)
		return;

	if(evt.preventDefault)
		evt.preventDefault();

	evt.returnValue = false;

	var svgDoc = evt.target.ownerDocument;

	var delta;

	if(evt.wheelDelta)
		delta = evt.wheelDelta / 360; // Chrome/Safari
	else
		delta = evt.detail / -9; // Mozilla

	var z = Math.pow(1 + zoomScale, delta);

	var g = getRoot(svgDoc);
	
	var p = getEventPoint(evt);

	p = p.matrixTransform(g.getCTM().inverse());

	// Compute new scale matrix in current mouse position
	var k = root.createSVGMatrix().translate(p.x, p.y).scale(z).translate(-p.x, -p.y);

        setCTM(g, g.getCTM().multiply(k));

	if(typeof(stateTf) == "undefined")
		stateTf = g.getCTM().inverse();

	stateTf = stateTf.multiply(k.inverse());
}

/**
 * Handle mouse move event.
 */
function handleMouseMove(evt) {
	if(evt.preventDefault)
		evt.preventDefault();

	evt.returnValue = false;

	var svgDoc = evt.target.ownerDocument;

	var g = getRoot(svgDoc);

	if(state == 'pan' && enablePan) {
		// Pan mode
		var p = getEventPoint(evt).matrixTransform(stateTf);

		setCTM(g, stateTf.inverse().translate(p.x - stateOrigin.x, p.y - stateOrigin.y));
	} else if(state == 'drag' && enableDrag) {
		// Drag mode
		var p = getEventPoint(evt).matrixTransform(g.getCTM().inverse());

		setCTM(stateTarget, root.createSVGMatrix().translate(p.x - stateOrigin.x, p.y - stateOrigin.y).multiply(g.getCTM().inverse()).multiply(stateTarget.getCTM()));

		stateOrigin = p;
	}
}

/**
 * Handle click event.
 */
function handleMouseDown(evt) {
	if(evt.preventDefault)
		evt.preventDefault();

	evt.returnValue = false;

	var svgDoc = evt.target.ownerDocument;

	var g = getRoot(svgDoc);

	if(
		evt.target.tagName == "svg"
		|| !enableDrag // Pan anyway when drag is disabled and the user clicked on an element
	) {
		// Pan mode
		state = 'pan';

		stateTf = g.getCTM().inverse();

		stateOrigin = getEventPoint(evt).matrixTransform(stateTf);
	} else {
		// Drag mode
		state = 'drag';

		stateTarget = evt.target;

		stateTf = g.getCTM().inverse();

		stateOrigin = getEventPoint(evt).matrixTransform(stateTf);
	}
}

/**
 * Handle mouse button release event.
 */
function handleMouseUp(evt) {
	if(evt.preventDefault)
		evt.preventDefault();

	evt.returnValue = false;

	var svgDoc = evt.target.ownerDocument;

	if(state == 'pan' || state == 'drag') {
		// Quit pan mode
		state = '';
	}
}
]]></script><g id="viewport" transform="scale(0.5,0.5) translate(0,0)"><g id="graph0" class="graph" transform="scale(1 1) rotate(0) translate(4 1375)">
<title>unnamed</title>
<polygon fill="white" stroke="none" points="-4,4 -4,-1375 1231,-1375 1231,4 -4,4"/>
<g id="clust1" class="cluster">
<title>cluster_L</title>
<polygon fill="none" stroke="black" points="8,-1230 8,-1363 492,-1363 492,-1230 8,-1230"/>
</g>
<!-- Type: alloc_space -->
<g id="node1" class="node">
<title>Type: alloc_space</title>
<polygon fill="#f8f8f8" stroke="black" points="483.5,-1355 16.5,-1355 16.5,-1238 483.5,-1238 483.5,-1355"/>
<text text-anchor="start" x="24.5" y="-1338.2" font-family="Times,serif" font-size="16.00">Type: alloc_space</text>
<text text-anchor="start" x="24.5" y="-1320.2" font-family="Times,serif" font-size="16.00">Time: Oct 14, 2022 at 6:43pm (CEST)</text>
<text text-anchor="start" x="24.5" y="-1302.2" font-family="Times,serif" font-size="16.00">Showing nodes accounting for 715.47MB, 99.51% of 718.97MB total</text>
<text text-anchor="start" x="24.5" y="-1284.2" font-family="Times,serif" font-size="16.00">Dropped 20 nodes (cum &lt;= 3.59MB)</text>
<text text-anchor="start" x="24.5" y="-1247.2" font-family="Times,serif" font-size="16.00">See https://git.io/JfYMW for how to read the graph</text>
</g>
<!-- N1 -->
<g id="node1" class="node">
<title>N1</title>
<g id="a_node1"><a xlink:title="testing.(*common).logDepth (628.44MB)">
<polygon fill="#edd6d5" stroke="#b20700" points="671,-736 429,-736 429,-598 671,-598 671,-736"/>
<text text-anchor="middle" x="550" y="-712.8" font-family="Times,serif" font-size="24.00">testing</text>
<text text-anchor="middle" x="550" y="-686.8" font-family="Times,serif" font-size="24.00">(*common)</text>
<text text-anchor="middle" x="550" y="-660.8" font-family="Times,serif" font-size="24.00">logDepth</text>
<text text-anchor="middle" x="550" y="-634.8" font-family="Times,serif" font-size="24.00">377.37MB (52.49%)</text>
<text text-anchor="middle" x="550" y="-608.8" font-family="Times,serif" font-size="24.00">of 628.44MB (87.41%)</text>
</a>
</g>
</g>
<!-- NN1_0 -->
<g id="NN1_0" class="node">
<title>NN1_0</title>
<g id="a_NN1_0"><a xlink:title="175.77MB">
<polygon fill="#f8f8f8" stroke="black" points="414.5,-547 355.5,-547 351.5,-543 351.5,-511 410.5,-511 414.5,-515 414.5,-547"/>
<polyline fill="none" stroke="black" points="410.5,-543 351.5,-543"/>
<polyline fill="none" stroke="black" points="410.5,-543 410.5,-511"/>
<polyline fill="none" stroke="black" points="410.5,-543 414.5,-547"/>
<text text-anchor="middle" x="383" y="-527.1" font-family="Times,serif" font-size="8.00">16B..38.49MB</text>
</a>
</g>
</g>
<!-- N1&#45;&gt;NN1_0 -->
<g id="edge1" class="edge">
<title>N1&#45;&gt;NN1_0</title>
<g id="a_edge1"><a xlink:title="175.77MB">
<path fill="none" stroke="black" d="M434.92,-597.85C427.91,-592.15 421.2,-586.18 415,-580 407.93,-572.94 401.62,-564.06 396.52,-555.75"/>
<polygon fill="black" stroke="black" points="399.52,-553.95 391.47,-547.06 393.47,-557.47 399.52,-553.95"/>
</a>
</g>
<g id="a_edge1&#45;label"><a xlink:title="175.77MB">
<text text-anchor="middle" x="447" y="-568.8" font-family="Times,serif" font-size="14.00"> 175.77MB</text>
</a>
</g>
</g>
<!-- NN1_1 -->
<g id="NN1_1" class="node">
<title>NN1_1</title>
<g id="a_NN1_1"><a xlink:title="75.19MB">
<polygon fill="#f8f8f8" stroke="black" points="497,-547 447,-547 443,-543 443,-511 493,-511 497,-515 497,-547"/>
<polyline fill="none" stroke="black" points="493,-543 443,-543"/>
<polyline fill="none" stroke="black" points="493,-543 493,-511"/>
<polyline fill="none" stroke="black" points="493,-543 497,-547"/>
<text text-anchor="middle" x="470" y="-527.1" font-family="Times,serif" font-size="8.00">75.19MB</text>
</a>
</g>
</g>
<!-- N1&#45;&gt;NN1_1 -->
<g id="edge2" class="edge">
<title>N1&#45;&gt;NN1_1</title>
<g id="a_edge2"><a xlink:title="75.19MB">
<path fill="none" stroke="black" d="M499.45,-597.99C495.73,-592.02 492.19,-585.98 489,-580 485.11,-572.71 481.63,-564.44 478.74,-556.76"/>
<polygon fill="black" stroke="black" points="481.96,-555.38 475.3,-547.13 475.37,-557.73 481.96,-555.38"/>
</a>
</g>
<g id="a_edge2&#45;label"><a xlink:title="75.19MB">
<text text-anchor="middle" x="517.5" y="-568.8" font-family="Times,serif" font-size="14.00"> 75.19MB</text>
</a>
</g>
</g>
<!-- NN1_2 -->
<g id="NN1_2" class="node">
<title>NN1_2</title>
<g id="a_NN1_2"><a xlink:title="60.15MB">
<polygon fill="#f8f8f8" stroke="black" points="577,-547 527,-547 523,-543 523,-511 573,-511 577,-515 577,-547"/>
<polyline fill="none" stroke="black" points="573,-543 523,-543"/>
<polyline fill="none" stroke="black" points="573,-543 573,-511"/>
<polyline fill="none" stroke="black" points="573,-543 577,-547"/>
<text text-anchor="middle" x="550" y="-527.1" font-family="Times,serif" font-size="8.00">60.15MB</text>
</a>
</g>
</g>
<!-- N1&#45;&gt;NN1_2 -->
<g id="edge3" class="edge">
<title>N1&#45;&gt;NN1_2</title>
<g id="a_edge3"><a xlink:title="60.15MB">
<path fill="none" stroke="black" d="M550,-597.6C550,-583.37 550,-569.15 550,-557.46"/>
<polygon fill="black" stroke="black" points="553.5,-557.1 550,-547.1 546.5,-557.1 553.5,-557.1"/>
</a>
</g>
<g id="a_edge3&#45;label"><a xlink:title="60.15MB">
<text text-anchor="middle" x="578.5" y="-568.8" font-family="Times,serif" font-size="14.00"> 60.15MB</text>
</a>
</g>
</g>
<!-- NN1_3 -->
<g id="NN1_3" class="node">
<title>NN1_3</title>
<g id="a_NN1_3"><a xlink:title="48.12MB">
<polygon fill="#f8f8f8" stroke="black" points="657,-547 607,-547 603,-543 603,-511 653,-511 657,-515 657,-547"/>
<polyline fill="none" stroke="black" points="653,-543 603,-543"/>
<polyline fill="none" stroke="black" points="653,-543 653,-511"/>
<polyline fill="none" stroke="black" points="653,-543 657,-547"/>
<text text-anchor="middle" x="630" y="-527.1" font-family="Times,serif" font-size="8.00">48.12MB</text>
</a>
</g>
</g>
<!-- N1&#45;&gt;NN1_3 -->
<g id="edge4" class="edge">
<title>N1&#45;&gt;NN1_3</title>
<g id="a_edge4"><a xlink:title="48.12MB">
<path fill="none" stroke="black" d="M597.65,-597.68C601.28,-591.78 604.78,-585.83 608,-580 612.12,-572.53 616.06,-564.13 619.44,-556.38"/>
<polygon fill="black" stroke="black" points="622.73,-557.6 623.4,-547.03 616.28,-554.88 622.73,-557.6"/>
</a>
</g>
<g id="a_edge4&#45;label"><a xlink:title="48.12MB">
<text text-anchor="middle" x="643.5" y="-568.8" font-family="Times,serif" font-size="14.00"> 48.12MB</text>
</a>
</g>
</g>
<!-- N3 -->
<g id="node3" class="node">
<title>N3</title>
<g id="a_node3"><a xlink:title="testing.(*common).decorate (251.07MB)">
<polygon fill="#eddbd5" stroke="#b23000" points="761.5,-474 642.5,-474 642.5,-406 761.5,-406 761.5,-474"/>
<text text-anchor="middle" x="702" y="-461.2" font-family="Times,serif" font-size="11.00">testing</text>
<text text-anchor="middle" x="702" y="-449.2" font-family="Times,serif" font-size="11.00">(*common)</text>
<text text-anchor="middle" x="702" y="-437.2" font-family="Times,serif" font-size="11.00">decorate</text>
<text text-anchor="middle" x="702" y="-425.2" font-family="Times,serif" font-size="11.00">12MB (1.67%)</text>
<text text-anchor="middle" x="702" y="-413.2" font-family="Times,serif" font-size="11.00">of 251.07MB (34.92%)</text>
</a>
</g>
</g>
<!-- N1&#45;&gt;N3 -->
<g id="edge19" class="edge">
<title>N1&#45;&gt;N3</title>
<g id="a_edge19"><a xlink:title="testing.(*common).logDepth &#45;&gt; testing.(*common).decorate (251.07MB)">
<path fill="none" stroke="#b23000" stroke-width="2" d="M661.89,-597.93C667.1,-592.3 671.87,-586.32 676,-580 694.47,-551.71 700.59,-513.68 702.31,-484.54"/>
<polygon fill="#b23000" stroke="#b23000" stroke-width="2" points="705.82,-484.39 702.76,-474.25 698.83,-484.09 705.82,-484.39"/>
</a>
</g>
<g id="a_edge19&#45;label"><a xlink:title="testing.(*common).logDepth &#45;&gt; testing.(*common).decorate (251.07MB)">
<text text-anchor="middle" x="731" y="-525.3" font-family="Times,serif" font-size="14.00"> 251.07MB</text>
</a>
</g>
</g>
<!-- N2 -->
<g id="node2" class="node">
<title>N2</title>
<g id="a_node2"><a xlink:title="testing.(*B).launch (715.97MB)">
<polygon fill="#edd5d5" stroke="#b20000" points="598.5,-1318.5 501.5,-1318.5 501.5,-1274.5 598.5,-1274.5 598.5,-1318.5"/>
<text text-anchor="middle" x="550" y="-1308.1" font-family="Times,serif" font-size="8.00">testing</text>
<text text-anchor="middle" x="550" y="-1299.1" font-family="Times,serif" font-size="8.00">(*B)</text>
<text text-anchor="middle" x="550" y="-1290.1" font-family="Times,serif" font-size="8.00">launch</text>
<text text-anchor="middle" x="550" y="-1281.1" font-family="Times,serif" font-size="8.00">0 of 715.97MB (99.58%)</text>
</a>
</g>
</g>
<!-- N14 -->
<g id="node14" class="node">
<title>N14</title>
<g id="a_node14"><a xlink:title="testing.(*B).runN (715.97MB)">
<polygon fill="#edd5d5" stroke="#b20000" points="598.5,-1187 501.5,-1187 501.5,-1143 598.5,-1143 598.5,-1187"/>
<text text-anchor="middle" x="550" y="-1176.6" font-family="Times,serif" font-size="8.00">testing</text>
<text text-anchor="middle" x="550" y="-1167.6" font-family="Times,serif" font-size="8.00">(*B)</text>
<text text-anchor="middle" x="550" y="-1158.6" font-family="Times,serif" font-size="8.00">runN</text>
<text text-anchor="middle" x="550" y="-1149.6" font-family="Times,serif" font-size="8.00">0 of 715.97MB (99.58%)</text>
</a>
</g>
</g>
<!-- N2&#45;&gt;N14 -->
<g id="edge14" class="edge">
<title>N2&#45;&gt;N14</title>
<g id="a_edge14"><a xlink:title="testing.(*B).launch &#45;&gt; testing.(*B).runN (715.97MB)">
<path fill="none" stroke="#b20000" stroke-width="5" d="M550,-1274.41C550,-1253.52 550,-1221.3 550,-1197.41"/>
<polygon fill="#b20000" stroke="#b20000" stroke-width="5" points="554.38,-1197.09 550,-1187.09 545.63,-1197.09 554.38,-1197.09"/>
</a>
</g>
<g id="a_edge14&#45;label"><a xlink:title="testing.(*B).launch &#45;&gt; testing.(*B).runN (715.97MB)">
<text text-anchor="middle" x="582" y="-1208.8" font-family="Times,serif" font-size="14.00"> 715.97MB</text>
</a>
</g>
</g>
<!-- NN3_0 -->
<g id="NN3_0" class="node">
<title>NN3_0</title>
<g id="a_NN3_0"><a xlink:title="11MB">
<polygon fill="#f8f8f8" stroke="black" points="657,-355 607,-355 603,-351 603,-319 653,-319 657,-323 657,-355"/>
<polyline fill="none" stroke="black" points="653,-351 603,-351"/>
<polyline fill="none" stroke="black" points="653,-351 653,-319"/>
<polyline fill="none" stroke="black" points="653,-351 657,-355"/>
<text text-anchor="middle" x="630" y="-335.1" font-family="Times,serif" font-size="8.00">32B</text>
</a>
</g>
</g>
<!-- N3&#45;&gt;NN3_0 -->
<g id="edge5" class="edge">
<title>N3&#45;&gt;NN3_0</title>
<g id="a_edge5"><a xlink:title="11MB">
<path fill="none" stroke="black" d="M671.66,-405.76C666.89,-399.99 662.16,-393.94 658,-388 652.75,-380.5 647.65,-371.94 643.28,-364.04"/>
<polygon fill="black" stroke="black" points="646.34,-362.33 638.52,-355.18 640.17,-365.64 646.34,-362.33"/>
</a>
</g>
<g id="a_edge5&#45;label"><a xlink:title="11MB">
<text text-anchor="middle" x="678" y="-376.8" font-family="Times,serif" font-size="14.00"> 11MB</text>
</a>
</g>
</g>
<!-- NN3_1 -->
<g id="NN3_1" class="node">
<title>NN3_1</title>
<g id="a_NN3_1"><a xlink:title="1MB">
<polygon fill="#f8f8f8" stroke="black" points="729,-355 679,-355 675,-351 675,-319 725,-319 729,-323 729,-355"/>
<polyline fill="none" stroke="black" points="725,-351 675,-351"/>
<polyline fill="none" stroke="black" points="725,-351 725,-319"/>
<polyline fill="none" stroke="black" points="725,-351 729,-355"/>
<text text-anchor="middle" x="702" y="-335.1" font-family="Times,serif" font-size="8.00">16B</text>
</a>
</g>
</g>
<!-- N3&#45;&gt;NN3_1 -->
<g id="edge6" class="edge">
<title>N3&#45;&gt;NN3_1</title>
<g id="a_edge6"><a xlink:title="1MB">
<path fill="none" stroke="black" d="M702,-405.93C702,-392.85 702,-377.99 702,-365.51"/>
<polygon fill="black" stroke="black" points="705.5,-365.26 702,-355.26 698.5,-365.26 705.5,-365.26"/>
</a>
</g>
<g id="a_edge6&#45;label"><a xlink:title="1MB">
<text text-anchor="middle" x="718.5" y="-376.8" font-family="Times,serif" font-size="14.00"> 1MB</text>
</a>
</g>
</g>
<!-- N5 -->
<g id="node5" class="node">
<title>N5</title>
<g id="a_node5"><a xlink:title="testing.(*common).frameSkip (143.55MB)">
<polygon fill="#edded5" stroke="#b24400" points="848,-282 682,-282 682,-194 848,-194 848,-282"/>
<text text-anchor="middle" x="765" y="-263.6" font-family="Times,serif" font-size="18.00">testing</text>
<text text-anchor="middle" x="765" y="-243.6" font-family="Times,serif" font-size="18.00">(*common)</text>
<text text-anchor="middle" x="765" y="-223.6" font-family="Times,serif" font-size="18.00">frameSkip</text>
<text text-anchor="middle" x="765" y="-203.6" font-family="Times,serif" font-size="18.00">143.55MB (19.97%)</text>
</a>
</g>
</g>
<!-- N3&#45;&gt;N5 -->
<g id="edge20" class="edge">
<title>N3&#45;&gt;N5</title>
<g id="a_edge20"><a xlink:title="testing.(*common).decorate &#45;&gt; testing.(*common).frameSkip (143.55MB)">
<path fill="none" stroke="#b24400" d="M729.36,-405.72C733.05,-400.06 736.44,-394.04 739,-388 751.81,-357.71 758.31,-321.4 761.61,-292.21"/>
<polygon fill="#b24400" stroke="#b24400" points="765.1,-292.51 762.64,-282.2 758.13,-291.78 765.1,-292.51"/>
</a>
</g>
<g id="a_edge20&#45;label"><a xlink:title="testing.(*common).decorate &#45;&gt; testing.(*common).frameSkip (143.55MB)">
<text text-anchor="middle" x="789" y="-333.3" font-family="Times,serif" font-size="14.00"> 143.55MB</text>
</a>
</g>
</g>
<!-- N7 -->
<g id="node7" class="node">
<title>N7</title>
<g id="a_node7"><a xlink:title="strings.(*Builder).WriteString (77.02MB)">
<polygon fill="#ede6e0" stroke="#b28152" points="1009.5,-278 866.5,-278 866.5,-198 1009.5,-198 1009.5,-278"/>
<text text-anchor="middle" x="938" y="-261.2" font-family="Times,serif" font-size="16.00">strings</text>
<text text-anchor="middle" x="938" y="-243.2" font-family="Times,serif" font-size="16.00">(*Builder)</text>
<text text-anchor="middle" x="938" y="-225.2" font-family="Times,serif" font-size="16.00">WriteString</text>
<text text-anchor="middle" x="938" y="-207.2" font-family="Times,serif" font-size="16.00">77.02MB (10.71%)</text>
</a>
</g>
</g>
<!-- N3&#45;&gt;N7 -->
<g id="edge21" class="edge">
<title>N3&#45;&gt;N7</title>
<g id="a_edge21"><a xlink:title="testing.(*common).decorate &#45;&gt; strings.(*Builder).WriteString (77.02MB)">
<path fill="none" stroke="#b28152" d="M755.44,-405.85C777.69,-391.22 803.32,-373.22 825,-355 850.22,-333.8 876.03,-307.71 896.6,-285.64"/>
<polygon fill="#b28152" stroke="#b28152" points="899.44,-287.73 903.65,-278.01 894.3,-282.98 899.44,-287.73"/>
</a>
</g>
<g id="a_edge21&#45;label"><a xlink:title="testing.(*common).decorate &#45;&gt; strings.(*Builder).WriteString (77.02MB)">
<text text-anchor="middle" x="891.5" y="-340.8" font-family="Times,serif" font-size="14.00"> 77.02MB</text>
<text text-anchor="middle" x="891.5" y="-325.8" font-family="Times,serif" font-size="14.00"> (inline)</text>
</a>
</g>
</g>
<!-- N12 -->
<g id="node12" class="node">
<title>N12</title>
<g id="a_node12"><a xlink:title="fmt.Fprintf (8MB)">
<polygon fill="#edeceb" stroke="#b2afa8" points="1104,-256 1028,-256 1028,-220 1104,-220 1104,-256"/>
<text text-anchor="middle" x="1066" y="-245.1" font-family="Times,serif" font-size="8.00">fmt</text>
<text text-anchor="middle" x="1066" y="-236.1" font-family="Times,serif" font-size="8.00">Fprintf</text>
<text text-anchor="middle" x="1066" y="-227.1" font-family="Times,serif" font-size="8.00">0 of 8MB (1.11%)</text>
</a>
</g>
</g>
<!-- N3&#45;&gt;N12 -->
<g id="edge27" class="edge">
<title>N3&#45;&gt;N12</title>
<g id="a_edge27"><a xlink:title="testing.(*common).decorate &#45;&gt; fmt.Fprintf (8MB)">
<path fill="none" stroke="#b2afa8" d="M761.58,-421.72C807.52,-407.17 871.81,-384.09 924,-355 970.51,-329.08 978.21,-316.23 1019,-282 1026.06,-276.07 1033.51,-269.45 1040.34,-263.2"/>
<polygon fill="#b2afa8" stroke="#b2afa8" points="1043.05,-265.47 1048.02,-256.12 1038.3,-260.33 1043.05,-265.47"/>
</a>
</g>
<g id="a_edge27&#45;label"><a xlink:title="testing.(*common).decorate &#45;&gt; fmt.Fprintf (8MB)">
<text text-anchor="middle" x="992.5" y="-333.3" font-family="Times,serif" font-size="14.00"> 8MB</text>
</a>
</g>
</g>
<!-- N13 -->
<g id="node13" class="node">
<title>N13</title>
<g id="a_node13"><a xlink:title="strings.Split (10.50MB)">
<polygon fill="#edeceb" stroke="#b2aea5" points="1213.5,-256 1124.5,-256 1124.5,-220 1213.5,-220 1213.5,-256"/>
<text text-anchor="middle" x="1169" y="-245.1" font-family="Times,serif" font-size="8.00">strings</text>
<text text-anchor="middle" x="1169" y="-236.1" font-family="Times,serif" font-size="8.00">Split</text>
<text text-anchor="middle" x="1169" y="-227.1" font-family="Times,serif" font-size="8.00">0 of 10.50MB (1.46%)</text>
</a>
</g>
</g>
<!-- N3&#45;&gt;N13 -->
<g id="edge25" class="edge">
<title>N3&#45;&gt;N13</title>
<g id="a_edge25"><a xlink:title="testing.(*common).decorate &#45;&gt; strings.Split (10.50MB)">
<path fill="none" stroke="#b2aea5" d="M761.59,-429.62C825.92,-417.98 930.3,-394.66 1013,-355 1063.35,-330.85 1113.77,-289.47 1143.15,-263.21"/>
<polygon fill="#b2aea5" stroke="#b2aea5" points="1145.79,-265.54 1150.86,-256.23 1141.1,-260.35 1145.79,-265.54"/>
</a>
</g>
<g id="a_edge25&#45;label"><a xlink:title="testing.(*common).decorate &#45;&gt; strings.Split (10.50MB)">
<text text-anchor="middle" x="1100.5" y="-340.8" font-family="Times,serif" font-size="14.00"> 10.50MB</text>
<text text-anchor="middle" x="1100.5" y="-325.8" font-family="Times,serif" font-size="14.00"> (inline)</text>
</a>
</g>
</g>
<!-- N4 -->
<g id="node4" class="node">
<title>N4</title>
<g id="a_node4"><a xlink:title="testing.(*common).Log (690.96MB)">
<polygon fill="#edd5d5" stroke="#b20200" points="598.5,-981 501.5,-981 501.5,-937 598.5,-937 598.5,-981"/>
<text text-anchor="middle" x="550" y="-970.6" font-family="Times,serif" font-size="8.00">testing</text>
<text text-anchor="middle" x="550" y="-961.6" font-family="Times,serif" font-size="8.00">(*common)</text>
<text text-anchor="middle" x="550" y="-952.6" font-family="Times,serif" font-size="8.00">Log</text>
<text text-anchor="middle" x="550" y="-943.6" font-family="Times,serif" font-size="8.00">0 of 690.96MB (96.10%)</text>
</a>
</g>
</g>
<!-- N8 -->
<g id="node8" class="node">
<title>N8</title>
<g id="a_node8"><a xlink:title="fmt.Sprintln (62.52MB)">
<polygon fill="#ede8e2" stroke="#b28d64" points="455.5,-863 312.5,-863 312.5,-787 455.5,-787 455.5,-863"/>
<text text-anchor="middle" x="384" y="-847" font-family="Times,serif" font-size="15.00">fmt</text>
<text text-anchor="middle" x="384" y="-830" font-family="Times,serif" font-size="15.00">Sprintln</text>
<text text-anchor="middle" x="384" y="-813" font-family="Times,serif" font-size="15.00">62.02MB (8.63%)</text>
<text text-anchor="middle" x="384" y="-796" font-family="Times,serif" font-size="15.00">of 62.52MB (8.70%)</text>
</a>
</g>
</g>
<!-- N4&#45;&gt;N8 -->
<g id="edge22" class="edge">
<title>N4&#45;&gt;N8</title>
<g id="a_edge22"><a xlink:title="testing.(*common).Log &#45;&gt; fmt.Sprintln (62.52MB)">
<path fill="none" stroke="#b28d64" d="M522.26,-936.85C511.79,-928.81 499.81,-919.53 489,-911 472.08,-897.63 453.76,-882.9 437.24,-869.51"/>
<polygon fill="#b28d64" stroke="#b28d64" points="439.26,-866.64 429.29,-863.06 434.85,-872.08 439.26,-866.64"/>
</a>
</g>
<g id="a_edge22&#45;label"><a xlink:title="testing.(*common).Log &#45;&gt; fmt.Sprintln (62.52MB)">
<text text-anchor="middle" x="517.5" y="-892.3" font-family="Times,serif" font-size="14.00"> 62.52MB</text>
</a>
</g>
</g>
<!-- N15 -->
<g id="node15" class="node">
<title>N15</title>
<g id="a_node15"><a xlink:title="testing.(*common).log (628.44MB)">
<polygon fill="#edd6d5" stroke="#b20700" points="598.5,-847 501.5,-847 501.5,-803 598.5,-803 598.5,-847"/>
<text text-anchor="middle" x="550" y="-836.6" font-family="Times,serif" font-size="8.00">testing</text>
<text text-anchor="middle" x="550" y="-827.6" font-family="Times,serif" font-size="8.00">(*common)</text>
<text text-anchor="middle" x="550" y="-818.6" font-family="Times,serif" font-size="8.00">log</text>
<text text-anchor="middle" x="550" y="-809.6" font-family="Times,serif" font-size="8.00">0 of 628.44MB (87.41%)</text>
</a>
</g>
</g>
<!-- N4&#45;&gt;N15 -->
<g id="edge17" class="edge">
<title>N4&#45;&gt;N15</title>
<g id="a_edge17"><a xlink:title="testing.(*common).Log &#45;&gt; testing.(*common).log (628.44MB)">
<path fill="none" stroke="#b20700" stroke-width="5" d="M550,-936.79C550,-915.33 550,-881.92 550,-857.39"/>
<polygon fill="#b20700" stroke="#b20700" stroke-width="5" points="554.38,-857.16 550,-847.16 545.63,-857.16 554.38,-857.16"/>
</a>
</g>
<g id="a_edge17&#45;label"><a xlink:title="testing.(*common).Log &#45;&gt; testing.(*common).log (628.44MB)">
<text text-anchor="middle" x="582" y="-899.8" font-family="Times,serif" font-size="14.00"> 628.44MB</text>
<text text-anchor="middle" x="582" y="-884.8" font-family="Times,serif" font-size="14.00"> (inline)</text>
</a>
</g>
</g>
<!-- NN5_0 -->
<g id="NN5_0" class="node">
<title>NN5_0</title>
<g id="a_NN5_0"><a xlink:title="89.54MB">
<polygon fill="#f8f8f8" stroke="black" points="752,-133 702,-133 698,-129 698,-97 748,-97 752,-101 752,-133"/>
<polyline fill="none" stroke="black" points="748,-129 698,-129"/>
<polyline fill="none" stroke="black" points="748,-129 748,-97"/>
<polyline fill="none" stroke="black" points="748,-129 752,-133"/>
<text text-anchor="middle" x="725" y="-113.1" font-family="Times,serif" font-size="8.00">416B</text>
</a>
</g>
</g>
<!-- N5&#45;&gt;NN5_0 -->
<g id="edge7" class="edge">
<title>N5&#45;&gt;NN5_0</title>
<g id="a_edge7"><a xlink:title="89.54MB">
<path fill="none" stroke="black" d="M733.41,-193.76C730.41,-188.01 727.81,-182.02 726,-176 722.88,-165.64 722.12,-153.8 722.33,-143.4"/>
<polygon fill="black" stroke="black" points="725.84,-143.35 722.84,-133.19 718.85,-143.01 725.84,-143.35"/>
</a>
</g>
<g id="a_edge7&#45;label"><a xlink:title="89.54MB">
<text text-anchor="middle" x="754.5" y="-164.8" font-family="Times,serif" font-size="14.00"> 89.54MB</text>
</a>
</g>
</g>
<!-- NN5_1 -->
<g id="NN5_1" class="node">
<title>NN5_1</title>
<g id="a_NN5_1"><a xlink:title="54.01MB">
<polygon fill="#f8f8f8" stroke="black" points="832,-133 782,-133 778,-129 778,-97 828,-97 832,-101 832,-133"/>
<polyline fill="none" stroke="black" points="828,-129 778,-129"/>
<polyline fill="none" stroke="black" points="828,-129 828,-97"/>
<polyline fill="none" stroke="black" points="828,-129 832,-133"/>
<text text-anchor="middle" x="805" y="-113.1" font-family="Times,serif" font-size="8.00">208B</text>
</a>
</g>
</g>
<!-- N5&#45;&gt;NN5_1 -->
<g id="edge8" class="edge">
<title>N5&#45;&gt;NN5_1</title>
<g id="a_edge8"><a xlink:title="54.01MB">
<path fill="none" stroke="black" d="M779.22,-194C784.87,-176.89 791.2,-157.74 796.18,-142.69"/>
<polygon fill="black" stroke="black" points="799.56,-143.6 799.38,-133.01 792.92,-141.41 799.56,-143.6"/>
</a>
</g>
<g id="a_edge8&#45;label"><a xlink:title="54.01MB">
<text text-anchor="middle" x="817.5" y="-164.8" font-family="Times,serif" font-size="14.00"> 54.01MB</text>
</a>
</g>
</g>
<!-- N6 -->
<g id="node6" class="node">
<title>N6</title>
<g id="a_node6"><a xlink:title="goes/10&#45;2022/gotesting/hashBenching.BenchmarkSHA512Alloc (715.97MB)">
<polygon fill="#edd5d5" stroke="#b20000" points="611,-1092 489,-1092 489,-1040 611,-1040 611,-1092"/>
<text text-anchor="middle" x="550" y="-1080" font-family="Times,serif" font-size="10.00">hashBenching</text>
<text text-anchor="middle" x="550" y="-1069" font-family="Times,serif" font-size="10.00">BenchmarkSHA512Alloc</text>
<text text-anchor="middle" x="550" y="-1058" font-family="Times,serif" font-size="10.00">2.50MB (0.35%)</text>
<text text-anchor="middle" x="550" y="-1047" font-family="Times,serif" font-size="10.00">of 715.97MB (99.58%)</text>
</a>
</g>
</g>
<!-- N6&#45;&gt;N4 -->
<g id="edge16" class="edge">
<title>N6&#45;&gt;N4</title>
<g id="a_edge16"><a xlink:title="goes/10&#45;2022/gotesting/hashBenching.BenchmarkSHA512Alloc &#45;&gt; testing.(*common).Log (690.96MB)">
<path fill="none" stroke="#b20200" stroke-width="5" d="M550,-1039.85C550,-1025.26 550,-1006.76 550,-991.24"/>
<polygon fill="#b20200" stroke="#b20200" stroke-width="5" points="554.38,-991.05 550,-981.06 545.63,-991.06 554.38,-991.05"/>
</a>
</g>
<g id="a_edge16&#45;label"><a xlink:title="goes/10&#45;2022/gotesting/hashBenching.BenchmarkSHA512Alloc &#45;&gt; testing.(*common).Log (690.96MB)">
<text text-anchor="middle" x="582" y="-1010.8" font-family="Times,serif" font-size="14.00"> 690.96MB</text>
</a>
</g>
</g>
<!-- N9 -->
<g id="node9" class="node">
<title>N9</title>
<g id="a_node9"><a xlink:title="crypto/sha512.(*digest).Sum (22.50MB)">
<polygon fill="#edebe9" stroke="#b2a896" points="721,-989 617,-989 617,-929 721,-929 721,-989"/>
<text text-anchor="middle" x="669" y="-975.4" font-family="Times,serif" font-size="12.00">sha512</text>
<text text-anchor="middle" x="669" y="-962.4" font-family="Times,serif" font-size="12.00">(*digest)</text>
<text text-anchor="middle" x="669" y="-949.4" font-family="Times,serif" font-size="12.00">Sum</text>
<text text-anchor="middle" x="669" y="-936.4" font-family="Times,serif" font-size="12.00">22.50MB (3.13%)</text>
</a>
</g>
</g>
<!-- N6&#45;&gt;N9 -->
<g id="edge23" class="edge">
<title>N6&#45;&gt;N9</title>
<g id="a_edge23"><a xlink:title="goes/10&#45;2022/gotesting/hashBenching.BenchmarkSHA512Alloc &#45;&gt; crypto/sha512.(*digest).Sum (22.50MB)">
<path fill="none" stroke="#b2a896" d="M594.28,-1039.9C602.5,-1034.44 610.77,-1028.38 618,-1022 626.4,-1014.59 634.55,-1005.71 641.79,-997.03"/>
<polygon fill="#b2a896" stroke="#b2a896" points="644.59,-999.13 648.15,-989.16 639.14,-994.73 644.59,-999.13"/>
</a>
</g>
<g id="a_edge23&#45;label"><a xlink:title="goes/10&#45;2022/gotesting/hashBenching.BenchmarkSHA512Alloc &#45;&gt; crypto/sha512.(*digest).Sum (22.50MB)">
<text text-anchor="middle" x="660.5" y="-1010.8" font-family="Times,serif" font-size="14.00"> 22.50MB</text>
</a>
</g>
</g>
<!-- NN7_0 -->
<g id="NN7_0" class="node">
<title>NN7_0</title>
<g id="a_NN7_0"><a xlink:title="74.02MB">
<polygon fill="#f8f8f8" stroke="black" points="965,-133 915,-133 911,-129 911,-97 961,-97 965,-101 965,-133"/>
<polyline fill="none" stroke="black" points="961,-129 911,-129"/>
<polyline fill="none" stroke="black" points="961,-129 961,-97"/>
<polyline fill="none" stroke="black" points="961,-129 965,-133"/>
<text text-anchor="middle" x="938" y="-113.1" font-family="Times,serif" font-size="8.00">352B</text>
</a>
</g>
</g>
<!-- N7&#45;&gt;NN7_0 -->
<g id="edge9" class="edge">
<title>N7&#45;&gt;NN7_0</title>
<g id="a_edge9"><a xlink:title="74.02MB">
<path fill="none" stroke="black" d="M938,-197.71C938,-180 938,-159.5 938,-143.47"/>
<polygon fill="black" stroke="black" points="941.5,-143.17 938,-133.17 934.5,-143.17 941.5,-143.17"/>
</a>
</g>
<g id="a_edge9&#45;label"><a xlink:title="74.02MB">
<text text-anchor="middle" x="966.5" y="-164.8" font-family="Times,serif" font-size="14.00"> 74.02MB</text>
</a>
</g>
</g>
<!-- NN8_0 -->
<g id="NN8_0" class="node">
<title>NN8_0</title>
<g id="a_NN8_0"><a xlink:title="62.02MB">
<polygon fill="#f8f8f8" stroke="black" points="411,-685 361,-685 357,-681 357,-649 407,-649 411,-653 411,-685"/>
<polyline fill="none" stroke="black" points="407,-681 357,-681"/>
<polyline fill="none" stroke="black" points="407,-681 407,-649"/>
<polyline fill="none" stroke="black" points="407,-681 411,-685"/>
<text text-anchor="middle" x="384" y="-665.1" font-family="Times,serif" font-size="8.00">320B</text>
</a>
</g>
</g>
<!-- N8&#45;&gt;NN8_0 -->
<g id="edge10" class="edge">
<title>N8&#45;&gt;NN8_0</title>
<g id="a_edge10"><a xlink:title="62.02MB">
<path fill="none" stroke="black" d="M384,-786.63C384,-758.56 384,-720.73 384,-695.41"/>
<polygon fill="black" stroke="black" points="387.5,-695.39 384,-685.39 380.5,-695.39 387.5,-695.39"/>
</a>
</g>
<g id="a_edge10&#45;label"><a xlink:title="62.02MB">
<text text-anchor="middle" x="412.5" y="-757.8" font-family="Times,serif" font-size="14.00"> 62.02MB</text>
</a>
</g>
</g>
<!-- NN9_0 -->
<g id="NN9_0" class="node">
<title>NN9_0</title>
<g id="a_NN9_0"><a xlink:title="22.50MB">
<polygon fill="#f8f8f8" stroke="black" points="696,-843 646,-843 642,-839 642,-807 692,-807 696,-811 696,-843"/>
<polyline fill="none" stroke="black" points="692,-839 642,-839"/>
<polyline fill="none" stroke="black" points="692,-839 692,-807"/>
<polyline fill="none" stroke="black" points="692,-839 696,-843"/>
<text text-anchor="middle" x="669" y="-823.1" font-family="Times,serif" font-size="8.00">96B</text>
</a>
</g>
</g>
<!-- N9&#45;&gt;NN9_0 -->
<g id="edge11" class="edge">
<title>N9&#45;&gt;NN9_0</title>
<g id="a_edge11"><a xlink:title="22.50MB">
<path fill="none" stroke="black" d="M669,-928.7C669,-906.12 669,-875.13 669,-853.11"/>
<polygon fill="black" stroke="black" points="672.5,-853.1 669,-843.1 665.5,-853.1 672.5,-853.1"/>
</a>
</g>
<g id="a_edge11&#45;label"><a xlink:title="22.50MB">
<text text-anchor="middle" x="697.5" y="-892.3" font-family="Times,serif" font-size="14.00"> 22.50MB</text>
</a>
</g>
</g>
<!-- N10 -->
<g id="node10" class="node">
<title>N10</title>
<g id="a_node10"><a xlink:title="strings.genSplit (10.50MB)">
<polygon fill="#edeceb" stroke="#b2aea5" points="1218,-137 1122,-137 1122,-93 1218,-93 1218,-137"/>
<text text-anchor="middle" x="1170" y="-124.2" font-family="Times,serif" font-size="11.00">strings</text>
<text text-anchor="middle" x="1170" y="-112.2" font-family="Times,serif" font-size="11.00">genSplit</text>
<text text-anchor="middle" x="1170" y="-100.2" font-family="Times,serif" font-size="11.00">10.50MB (1.46%)</text>
</a>
</g>
</g>
<!-- NN10_0 -->
<g id="NN10_0" class="node">
<title>NN10_0</title>
<g id="a_NN10_0"><a xlink:title="10.50MB">
<polygon fill="#f8f8f8" stroke="black" points="1197,-36 1147,-36 1143,-32 1143,0 1193,0 1197,-4 1197,-36"/>
<polyline fill="none" stroke="black" points="1193,-32 1143,-32"/>
<polyline fill="none" stroke="black" points="1193,-32 1193,0"/>
<polyline fill="none" stroke="black" points="1193,-32 1197,-36"/>
<text text-anchor="middle" x="1170" y="-16.1" font-family="Times,serif" font-size="8.00">32B</text>
</a>
</g>
</g>
<!-- N10&#45;&gt;NN10_0 -->
<g id="edge12" class="edge">
<title>N10&#45;&gt;NN10_0</title>
<g id="a_edge12"><a xlink:title="10.50MB">
<path fill="none" stroke="black" d="M1170,-92.92C1170,-79.19 1170,-61.15 1170,-46.33"/>
<polygon fill="black" stroke="black" points="1173.5,-46.22 1170,-36.22 1166.5,-46.22 1173.5,-46.22"/>
</a>
</g>
<g id="a_edge12&#45;label"><a xlink:title="10.50MB">
<text text-anchor="middle" x="1198.5" y="-57.8" font-family="Times,serif" font-size="14.00"> 10.50MB</text>
</a>
</g>
</g>
<!-- N11 -->
<g id="node11" class="node">
<title>N11</title>
<g id="a_node11"><a xlink:title="strings.(*Builder).Write (8MB)">
<polygon fill="#edeceb" stroke="#b2afa8" points="1103.5,-143 1026.5,-143 1026.5,-87 1103.5,-87 1103.5,-143"/>
<text text-anchor="middle" x="1065" y="-130.2" font-family="Times,serif" font-size="11.00">strings</text>
<text text-anchor="middle" x="1065" y="-118.2" font-family="Times,serif" font-size="11.00">(*Builder)</text>
<text text-anchor="middle" x="1065" y="-106.2" font-family="Times,serif" font-size="11.00">Write</text>
<text text-anchor="middle" x="1065" y="-94.2" font-family="Times,serif" font-size="11.00">8MB (1.11%)</text>
</a>
</g>
</g>
<!-- NN11_0 -->
<g id="NN11_0" class="node">
<title>NN11_0</title>
<g id="a_NN11_0"><a xlink:title="8MB">
<polygon fill="#f8f8f8" stroke="black" points="1092,-36 1042,-36 1038,-32 1038,0 1088,0 1092,-4 1092,-36"/>
<polyline fill="none" stroke="black" points="1088,-32 1038,-32"/>
<polyline fill="none" stroke="black" points="1088,-32 1088,0"/>
<polyline fill="none" stroke="black" points="1088,-32 1092,-36"/>
<text text-anchor="middle" x="1065" y="-16.1" font-family="Times,serif" font-size="8.00">32B</text>
</a>
</g>
</g>
<!-- N11&#45;&gt;NN11_0 -->
<g id="edge13" class="edge">
<title>N11&#45;&gt;NN11_0</title>
<g id="a_edge13"><a xlink:title="8MB">
<path fill="none" stroke="black" d="M1065,-86.78C1065,-74.01 1065,-58.84 1065,-46.09"/>
<polygon fill="black" stroke="black" points="1068.5,-46.06 1065,-36.06 1061.5,-46.06 1068.5,-46.06"/>
</a>
</g>
<g id="a_edge13&#45;label"><a xlink:title="8MB">
<text text-anchor="middle" x="1081.5" y="-57.8" font-family="Times,serif" font-size="14.00"> 8MB</text>
</a>
</g>
</g>
<!-- N12&#45;&gt;N11 -->
<g id="edge26" class="edge">
<title>N12&#45;&gt;N11</title>
<g id="a_edge26"><a xlink:title="fmt.Fprintf &#45;&gt; strings.(*Builder).Write (8MB)">
<path fill="none" stroke="#b2afa8" d="M1065.86,-219.92C1065.72,-202.71 1065.49,-175.6 1065.31,-153.38"/>
<polygon fill="#b2afa8" stroke="#b2afa8" points="1068.81,-153.22 1065.23,-143.25 1061.81,-153.28 1068.81,-153.22"/>
</a>
</g>
<g id="a_edge26&#45;label"><a xlink:title="fmt.Fprintf &#45;&gt; strings.(*Builder).Write (8MB)">
<text text-anchor="middle" x="1081.5" y="-164.8" font-family="Times,serif" font-size="14.00"> 8MB</text>
</a>
</g>
</g>
<!-- N13&#45;&gt;N10 -->
<g id="edge24" class="edge">
<title>N13&#45;&gt;N10</title>
<g id="a_edge24"><a xlink:title="strings.Split &#45;&gt; strings.genSplit (10.50MB)">
<path fill="none" stroke="#b2aea5" d="M1169.14,-219.92C1169.3,-201.05 1169.55,-170.27 1169.74,-147.1"/>
<polygon fill="#b2aea5" stroke="#b2aea5" points="1173.24,-147.09 1169.83,-137.06 1166.24,-147.03 1173.24,-147.09"/>
</a>
</g>
<g id="a_edge24&#45;label"><a xlink:title="strings.Split &#45;&gt; strings.genSplit (10.50MB)">
<text text-anchor="middle" x="1197.5" y="-164.8" font-family="Times,serif" font-size="14.00"> 10.50MB</text>
</a>
</g>
</g>
<!-- N14&#45;&gt;N6 -->
<g id="edge15" class="edge">
<title>N14&#45;&gt;N6</title>
<g id="a_edge15"><a xlink:title="testing.(*B).runN &#45;&gt; goes/10&#45;2022/gotesting/hashBenching.BenchmarkSHA512Alloc (715.97MB)">
<path fill="none" stroke="#b20000" stroke-width="5" d="M550,-1142.95C550,-1131.05 550,-1115.87 550,-1102.2"/>
<polygon fill="#b20000" stroke="#b20000" stroke-width="5" points="554.38,-1102.13 550,-1092.13 545.63,-1102.13 554.38,-1102.13"/>
</a>
</g>
<g id="a_edge15&#45;label"><a xlink:title="testing.(*B).runN &#45;&gt; goes/10&#45;2022/gotesting/hashBenching.BenchmarkSHA512Alloc (715.97MB)">
<text text-anchor="middle" x="582" y="-1113.8" font-family="Times,serif" font-size="14.00"> 715.97MB</text>
</a>
</g>
</g>
<!-- N15&#45;&gt;N1 -->
<g id="edge18" class="edge">
<title>N15&#45;&gt;N1</title>
<g id="a_edge18"><a xlink:title="testing.(*common).log &#45;&gt; testing.(*common).logDepth (628.44MB)">
<path fill="none" stroke="#b20700" stroke-width="5" d="M550,-802.96C550,-788.17 550,-767.36 550,-746.51"/>
<polygon fill="#b20700" stroke="#b20700" stroke-width="5" points="554.38,-746.29 550,-736.29 545.63,-746.29 554.38,-746.29"/>
</a>
</g>
<g id="a_edge18&#45;label"><a xlink:title="testing.(*common).log &#45;&gt; testing.(*common).logDepth (628.44MB)">
<text text-anchor="middle" x="582" y="-757.8" font-family="Times,serif" font-size="14.00"> 628.44MB</text>
</a>
</g>
</g>
</g>
</g></svg>
